mtllib laproscope.mtl
o node
usemtl DefaultMaterial
v 0.01608731411397457 0.014964809641242027 -0.37440794706344604
v 0.0051285880617797375 0.0035617267712950706 0.0002723677607718855
v 0.01855696737766266 0.01287525612860918 -0.37437137961387634
v 0.01855696737766266 0.01287525612860918 -0.37437137961387634
v 0.0051285880617797375 0.0035617267712950706 0.0002723677607718855
v 0.00622404133901 0.0005178113933652639 0.00023596134269610047
v 0.01855696737766266 0.01287525612860918 -0.37437137961387634
v 0.00622404133901 0.0005178113933652639 0.00023596134269610047
v 0.01965242065489292 0.009831340052187443 -0.3744077980518341
v 0.01965242065489292 0.009831340052187443 -0.3744077980518341
v 0.00622404133901 0.0005178113933652639 0.00023596134269610047
v 0.005651768296957016 -0.002664851490408182 0.0001363292831229046
v 0.01965242065489292 0.009831340052187443 -0.3744077980518341
v 0.005651768296957016 -0.002664851490408182 0.0001363292831229046
v 0.01908014714717865 0.006648677866905928 -0.37450742721557617
v 0.01908014714717865 0.006648677866905928 -0.37450742721557617
v 0.005651768296957016 -0.002664851490408182 0.0001363292831229046
v 0.0035651077050715685 -0.005133469123393297 1.6789880419310066e-7
v 0.01908014714717865 0.006648677866905928 -0.37450742721557617
v 0.0035651077050715685 -0.005133469123393297 1.6789880419310066e-7
v 0.016993487253785133 0.004180059768259525 -0.37464356422424316
v 0.016993487253785133 0.004180059768259525 -0.37464356422424316
v 0.0035651077050715685 -0.005133469123393297 1.6789880419310066e-7
v 0.0005231798277236521 -0.006226578261703253 -0.0001360384630970657
v 0.016993487253785133 0.004180059768259525 -0.37464356422424316
v 0.0005231798277236521 -0.006226578261703253 -0.0001360384630970657
v 0.0139515595510602 0.0030869508627802134 -0.3747797906398773
v 0.0139515595510602 0.0030869508627802134 -0.3747797906398773
v 0.0005231798277236521 -0.006226578261703253 -0.0001360384630970657
v -0.0026589338667690754 -0.005651280749589205 -0.00023579344269819558
v 0.0139515595510602 0.0030869508627802134 -0.3747797906398773
v -0.0026589338667690754 -0.005651280749589205 -0.00023579344269819558
v 0.010769445449113846 0.0036622483748942614 -0.37487953901290894
v 0.010769445449113846 0.0036622483748942614 -0.37487953901290894
v -0.0026589338667690754 -0.005651280749589205 -0.00023579344269819558
v -0.0051285880617797375 -0.0035617267712950706 -0.0002723677607718855
v 0.010769445449113846 0.0036622483748942614 -0.37487953901290894
v -0.0051285880617797375 -0.0035617267712950706 -0.0002723677607718855
v 0.008299791254103184 0.005751802120357752 -0.37491610646247864
v 0.008299791254103184 0.005751802120357752 -0.37491610646247864
v -0.0051285880617797375 -0.0035617267712950706 -0.0002723677607718855
v -0.00622404133901 -0.0005178113933652639 -0.00023596134269610047
v 0.008299791254103184 0.005751802120357752 -0.37491610646247864
v -0.00622404133901 -0.0005178113933652639 -0.00023596134269610047
v 0.007204337976872921 0.008795717731118202 -0.37487971782684326
v 0.007204337976872921 0.008795717731118202 -0.37487971782684326
v -0.00622404133901 -0.0005178113933652639 -0.00023596134269610047
v -0.005651768296957016 0.002664851490408182 -0.0001363292831229046
v 0.007204337976872921 0.008795717731118202 -0.37487971782684326
v -0.005651768296957016 0.002664851490408182 -0.0001363292831229046
v 0.0077766114845871925 0.011978380382061005 -0.3747800886631012
v 0.0077766114845871925 0.011978380382061005 -0.3747800886631012
v -0.005651768296957016 0.002664851490408182 -0.0001363292831229046
v -0.0035651077050715685 0.005133469123393297 -1.6789880419310066e-7
v 0.0077766114845871925 0.011978380382061005 -0.3747800886631012
v -0.0035651077050715685 0.005133469123393297 -1.6789880419310066e-7
v 0.009863271377980709 0.01444699801504612 -0.3746439218521118
v 0.009863271377980709 0.01444699801504612 -0.3746439218521118
v -0.0035651077050715685 0.005133469123393297 -1.6789880419310066e-7
v -0.0005231798277236521 0.006226578261703253 0.0001360384630970657
v 0.009863271377980709 0.01444699801504612 -0.3746439218521118
v -0.0005231798277236521 0.006226578261703253 0.0001360384630970657
v 0.012905199080705643 0.015540107153356075 -0.37450769543647766
v 0.012905199080705643 0.015540107153356075 -0.37450769543647766
v -0.0005231798277236521 0.006226578261703253 0.0001360384630970657
v 0.0026589338667690754 0.005651280749589205 0.00023579344269819558
v 0.012905199080705643 0.015540107153356075 -0.37450769543647766
v 0.0026589338667690754 0.005651280749589205 0.00023579344269819558
v 0.01608731411397457 0.014964809641242027 -0.37440794706344604
v 0.01608731411397457 0.014964809641242027 -0.37440794706344604
v 0.0026589338667690754 0.005651280749589205 0.00023579344269819558
v 0.0051285880617797375 0.0035617267712950706 0.0002723677607718855
v -0.00622404133901 -0.0005178113933652639 -0.00023596134269610047
v -0.0051285880617797375 -0.0035617267712950706 -0.0002723677607718855
v 0 2.7755575615628914e-17 -1.6653345369377348e-16
v 0 2.7755575615628914e-17 -1.6653345369377348e-16
v -0.0051285880617797375 -0.0035617267712950706 -0.0002723677607718855
v -0.0026589338667690754 -0.005651280749589205 -0.00023579344269819558
v 0 2.7755575615628914e-17 -1.6653345369377348e-16
v -0.0026589338667690754 -0.005651280749589205 -0.00023579344269819558
v 0.0005231798277236521 -0.006226578261703253 -0.0001360384630970657
v -0.0005231798277236521 0.006226578261703253 0.0001360384630970657
v -0.0035651077050715685 0.005133469123393297 -1.6789880419310066e-7
v 0 2.7755575615628914e-17 -1.6653345369377348e-16
v 0 2.7755575615628914e-17 -1.6653345369377348e-16
v -0.0035651077050715685 0.005133469123393297 -1.6789880419310066e-7
v -0.005651768296957016 0.002664851490408182 -0.0001363292831229046
v 0 2.7755575615628914e-17 -1.6653345369377348e-16
v -0.005651768296957016 0.002664851490408182 -0.0001363292831229046
v -0.00622404133901 -0.0005178113933652639 -0.00023596134269610047
v 0.00622404133901 0.0005178113933652639 0.00023596134269610047
v 0.0051285880617797375 0.0035617267712950706 0.0002723677607718855
v 0 2.7755575615628914e-17 -1.6653345369377348e-16
v 0 2.7755575615628914e-17 -1.6653345369377348e-16
v 0.0051285880617797375 0.0035617267712950706 0.0002723677607718855
v 0.0026589338667690754 0.005651280749589205 0.00023579344269819558
v 0 2.7755575615628914e-17 -1.6653345369377348e-16
v 0.0026589338667690754 0.005651280749589205 0.00023579344269819558
v -0.0005231798277236521 0.006226578261703253 0.0001360384630970657
v 0.0005231798277236521 -0.006226578261703253 -0.0001360384630970657
v 0.0035651077050715685 -0.005133469123393297 1.6789880419310066e-7
v 0 2.7755575615628914e-17 -1.6653345369377348e-16
v 0 2.7755575615628914e-17 -1.6653345369377348e-16
v 0.0035651077050715685 -0.005133469123393297 1.6789880419310066e-7
v 0.005651768296957016 -0.002664851490408182 0.0001363292831229046
v 0 2.7755575615628914e-17 -1.6653345369377348e-16
v 0.005651768296957016 -0.002664851490408182 0.0001363292831229046
v 0.00622404133901 0.0005178113933652639 0.00023596134269610047
v 0.016993487253785133 0.004180059768259525 -0.37464356422424316
v 0.0139515595510602 0.0030869508627802134 -0.3747797906398773
v 0.013428379781544209 0.00931352935731411 -0.3746437430381775
v 0.013428379781544209 0.00931352935731411 -0.3746437430381775
v 0.0139515595510602 0.0030869508627802134 -0.3747797906398773
v 0.010769445449113846 0.0036622483748942614 -0.37487953901290894
v 0.013428379781544209 0.00931352935731411 -0.3746437430381775
v 0.010769445449113846 0.0036622483748942614 -0.37487953901290894
v 0.008299791254103184 0.005751802120357752 -0.37491610646247864
v 0.01855696737766266 0.01287525612860918 -0.37437137961387634
v 0.01965242065489292 0.009831340052187443 -0.3744077980518341
v 0.013428379781544209 0.00931352935731411 -0.3746437430381775
v 0.013428379781544209 0.00931352935731411 -0.3746437430381775
v 0.01965242065489292 0.009831340052187443 -0.3744077980518341
v 0.01908014714717865 0.006648677866905928 -0.37450742721557617
v 0.013428379781544209 0.00931352935731411 -0.3746437430381775
v 0.01908014714717865 0.006648677866905928 -0.37450742721557617
v 0.016993487253785133 0.004180059768259525 -0.37464356422424316
v 0.009863271377980709 0.01444699801504612 -0.3746439218521118
v 0.012905199080705643 0.015540107153356075 -0.37450769543647766
v 0.013428379781544209 0.00931352935731411 -0.3746437430381775
v 0.013428379781544209 0.00931352935731411 -0.3746437430381775
v 0.012905199080705643 0.015540107153356075 -0.37450769543647766
v 0.01608731411397457 0.014964809641242027 -0.37440794706344604
v 0.013428379781544209 0.00931352935731411 -0.3746437430381775
v 0.01608731411397457 0.014964809641242027 -0.37440794706344604
v 0.01855696737766266 0.01287525612860918 -0.37437137961387634
v 0.008299791254103184 0.005751802120357752 -0.37491610646247864
v 0.007204337976872921 0.008795717731118202 -0.37487971782684326
v 0.013428379781544209 0.00931352935731411 -0.3746437430381775
v 0.013428379781544209 0.00931352935731411 -0.3746437430381775
v 0.007204337976872921 0.008795717731118202 -0.37487971782684326
v 0.0077766114845871925 0.011978380382061005 -0.3747800886631012
v 0.013428379781544209 0.00931352935731411 -0.3746437430381775
v 0.0077766114845871925 0.011978380382061005 -0.3747800886631012
v 0.009863271377980709 0.01444699801504612 -0.3746439218521118
vn 0.6449789351047894 0.7630405362352387 0.04208697343515333
vn 0.6449789351047894 0.7630405362352387 0.04208697343515333
vn 0.6449789351047894 0.7630405362352387 0.04208697343515333
vn 0.9402485824178725 0.33787589324815165 0.042100879123183506
vn 0.9402485824178725 0.33787589324815165 0.042100879123183506
vn 0.9402485824178725 0.33787589324815165 0.042100879123183506
vn 0.9402485824178725 0.33787589324815165 0.042100879123183506
vn 0.9402485824178725 0.33787589324815165 0.042100879123183506
vn 0.9402485824178725 0.33787589324815165 0.042100879123183506
vn 0.9835794324905494 -0.17782230235615737 0.030833889899334905
vn 0.9835794324905494 -0.17782230235615737 0.030833889899334905
vn 0.9835794324905494 -0.17782230235615737 0.030833889899334905
vn 0.9835794324905494 -0.17782230235615737 0.030833889899334905
vn 0.9835794324905494 -0.17782230235615737 0.030833889899334905
vn 0.9835794324905494 -0.17782230235615737 0.030833889899334905
vn 0.763360908679121 -0.6458733006607813 0.01130498094358449
vn 0.763360908679121 -0.6458733006607813 0.01130498094358449
vn 0.763360908679121 -0.6458733006607813 0.01130498094358449
vn 0.763360908679121 -0.6458733006607813 0.01130498094358449
vn 0.763360908679121 -0.6458733006607813 0.01130498094358449
vn 0.763360908679121 -0.6458733006607813 0.01130498094358449
vn 0.33860050969140065 -0.9408629352461214 -0.011253084767130495
vn 0.33860050969140065 -0.9408629352461214 -0.011253084767130495
vn 0.33860050969140065 -0.9408629352461214 -0.011253084767130495
vn 0.33860050969140065 -0.9408629352461214 -0.011253084767130495
vn 0.33860050969140065 -0.9408629352461214 -0.011253084767130495
vn 0.33860050969140065 -0.9408629352461214 -0.011253084767130495
vn -0.17688757244461792 -0.9837491547499251 -0.0307958965360376
vn -0.17688757244461792 -0.9837491547499251 -0.0307958965360376
vn -0.17688757244461792 -0.9837491547499251 -0.0307958965360376
vn -0.17688757244461792 -0.9837491547499251 -0.0307958965360376
vn -0.17688757244461792 -0.9837491547499251 -0.0307958965360376
vn -0.17688757244461792 -0.9837491547499251 -0.0307958965360376
vn -0.6449789351047894 -0.7630405362352387 -0.04208697343515333
vn -0.6449789351047894 -0.7630405362352387 -0.04208697343515333
vn -0.6449789351047894 -0.7630405362352387 -0.04208697343515333
vn -0.6449789351047894 -0.7630405362352387 -0.04208697343515333
vn -0.6449789351047894 -0.7630405362352387 -0.04208697343515333
vn -0.6449789351047894 -0.7630405362352387 -0.04208697343515333
vn -0.9402485824178725 -0.33787589324815165 -0.042100879123183506
vn -0.9402485824178725 -0.33787589324815165 -0.042100879123183506
vn -0.9402485824178725 -0.33787589324815165 -0.042100879123183506
vn -0.9402485824178725 -0.33787589324815165 -0.042100879123183506
vn -0.9402485824178725 -0.33787589324815165 -0.042100879123183506
vn -0.9402485824178725 -0.33787589324815165 -0.042100879123183506
vn -0.9835794324905494 0.17782230235615737 -0.030833889899334905
vn -0.9835794324905494 0.17782230235615737 -0.030833889899334905
vn -0.9835794324905494 0.17782230235615737 -0.030833889899334905
vn -0.9835794324905494 0.17782230235615737 -0.030833889899334905
vn -0.9835794324905494 0.17782230235615737 -0.030833889899334905
vn -0.9835794324905494 0.17782230235615737 -0.030833889899334905
vn -0.763360908679121 0.6458733006607813 -0.01130498094358449
vn -0.763360908679121 0.6458733006607813 -0.01130498094358449
vn -0.763360908679121 0.6458733006607813 -0.01130498094358449
vn -0.763360908679121 0.6458733006607813 -0.01130498094358449
vn -0.763360908679121 0.6458733006607813 -0.01130498094358449
vn -0.763360908679121 0.6458733006607813 -0.01130498094358449
vn -0.33860050969140065 0.9408629352461214 0.011253084767130495
vn -0.33860050969140065 0.9408629352461214 0.011253084767130495
vn -0.33860050969140065 0.9408629352461214 0.011253084767130495
vn -0.33860050969140065 0.9408629352461214 0.011253084767130495
vn -0.33860050969140065 0.9408629352461214 0.011253084767130495
vn -0.33860050969140065 0.9408629352461214 0.011253084767130495
vn 0.17688757244461792 0.9837491547499251 0.0307958965360376
vn 0.17688757244461792 0.9837491547499251 0.0307958965360376
vn 0.17688757244461792 0.9837491547499251 0.0307958965360376
vn 0.17688757244461792 0.9837491547499251 0.0307958965360376
vn 0.17688757244461792 0.9837491547499251 0.0307958965360376
vn 0.17688757244461792 0.9837491547499251 0.0307958965360376
vn 0.6449789351047894 0.7630405362352387 0.04208697343515333
vn 0.6449789351047894 0.7630405362352387 0.04208697343515333
vn 0.6449789351047894 0.7630405362352387 0.04208697343515333
vn -0.035809010763439085 -0.024836079771846015 0.9990499906860069
vn -0.035809010763439085 -0.024836079771846015 0.9990499906860069
vn -0.035809010763439085 -0.024836079771846015 0.9990499906860069
vn -0.035809010763439085 -0.024836079771846015 0.9990499906860069
vn -0.035809010763439085 -0.024836079771846015 0.9990499906860069
vn -0.035809010763439085 -0.024836079771846015 0.9990499906860069
vn -0.035809010763439085 -0.024836079771846015 0.9990499906860069
vn -0.035809010763439085 -0.024836079771846015 0.9990499906860069
vn -0.035809010763439085 -0.024836079771846015 0.9990499906860069
vn -0.035809010763439085 -0.024836079771846015 0.9990499906860069
vn -0.035809010763439085 -0.024836079771846015 0.9990499906860069
vn -0.035809010763439085 -0.024836079771846015 0.9990499906860069
vn -0.035809010763439085 -0.024836079771846015 0.9990499906860069
vn -0.035809010763439085 -0.024836079771846015 0.9990499906860069
vn -0.035809010763439085 -0.024836079771846015 0.9990499906860069
vn -0.035809010763439085 -0.024836079771846015 0.9990499906860069
vn -0.035809010763439085 -0.024836079771846015 0.9990499906860069
vn -0.035809010763439085 -0.024836079771846015 0.9990499906860069
vn -0.035809010763439085 -0.024836079771846015 0.9990499906860069
vn -0.035809010763439085 -0.024836079771846015 0.9990499906860069
vn -0.035809010763439085 -0.024836079771846015 0.9990499906860069
vn -0.035809010763439085 -0.024836079771846015 0.9990499906860069
vn -0.035809010763439085 -0.024836079771846015 0.9990499906860069
vn -0.035809010763439085 -0.024836079771846015 0.9990499906860069
vn -0.035809010763439085 -0.024836079771846015 0.9990499906860069
vn -0.035809010763439085 -0.024836079771846015 0.9990499906860069
vn -0.035809010763439085 -0.024836079771846015 0.9990499906860069
vn -0.035809010763439085 -0.024836079771846015 0.9990499906860069
vn -0.035809010763439085 -0.024836079771846015 0.9990499906860069
vn -0.035809010763439085 -0.024836079771846015 0.9990499906860069
vn -0.035809010763439085 -0.024836079771846015 0.9990499906860069
vn -0.035809010763439085 -0.024836079771846015 0.9990499906860069
vn -0.035809010763439085 -0.024836079771846015 0.9990499906860069
vn -0.035809010763439085 -0.024836079771846015 0.9990499906860069
vn -0.035809010763439085 -0.024836079771846015 0.9990499906860069
vn -0.035809010763439085 -0.024836079771846015 0.9990499906860069
vn 0.035809010763439085 0.024836079771846015 -0.9990499906860069
vn 0.035809010763439085 0.024836079771846015 -0.9990499906860069
vn 0.035809010763439085 0.024836079771846015 -0.9990499906860069
vn 0.035809010763439085 0.024836079771846015 -0.9990499906860069
vn 0.035809010763439085 0.024836079771846015 -0.9990499906860069
vn 0.035809010763439085 0.024836079771846015 -0.9990499906860069
vn 0.035809010763439085 0.024836079771846015 -0.9990499906860069
vn 0.035809010763439085 0.024836079771846015 -0.9990499906860069
vn 0.035809010763439085 0.024836079771846015 -0.9990499906860069
vn 0.035809010763439085 0.024836079771846015 -0.9990499906860069
vn 0.035809010763439085 0.024836079771846015 -0.9990499906860069
vn 0.035809010763439085 0.024836079771846015 -0.9990499906860069
vn 0.035809010763439085 0.024836079771846015 -0.9990499906860069
vn 0.035809010763439085 0.024836079771846015 -0.9990499906860069
vn 0.035809010763439085 0.024836079771846015 -0.9990499906860069
vn 0.035809010763439085 0.024836079771846015 -0.9990499906860069
vn 0.035809010763439085 0.024836079771846015 -0.9990499906860069
vn 0.035809010763439085 0.024836079771846015 -0.9990499906860069
vn 0.035809010763439085 0.024836079771846015 -0.9990499906860069
vn 0.035809010763439085 0.024836079771846015 -0.9990499906860069
vn 0.035809010763439085 0.024836079771846015 -0.9990499906860069
vn 0.035809010763439085 0.024836079771846015 -0.9990499906860069
vn 0.035809010763439085 0.024836079771846015 -0.9990499906860069
vn 0.035809010763439085 0.024836079771846015 -0.9990499906860069
vn 0.035809010763439085 0.024836079771846015 -0.9990499906860069
vn 0.035809010763439085 0.024836079771846015 -0.9990499906860069
vn 0.035809010763439085 0.024836079771846015 -0.9990499906860069
vn 0.035809010763439085 0.024836079771846015 -0.9990499906860069
vn 0.035809010763439085 0.024836079771846015 -0.9990499906860069
vn 0.035809010763439085 0.024836079771846015 -0.9990499906860069
vn 0.035809010763439085 0.024836079771846015 -0.9990499906860069
vn 0.035809010763439085 0.024836079771846015 -0.9990499906860069
vn 0.035809010763439085 0.024836079771846015 -0.9990499906860069
vn 0.035809010763439085 0.024836079771846015 -0.9990499906860069
vn 0.035809010763439085 0.024836079771846015 -0.9990499906860069
vn 0.035809010763439085 0.024836079771846015 -0.9990499906860069
f 1//1 2//2 3//3
f 4//4 5//5 6//6
f 7//7 8//8 9//9
f 10//10 11//11 12//12
f 13//13 14//14 15//15
f 16//16 17//17 18//18
f 19//19 20//20 21//21
f 22//22 23//23 24//24
f 25//25 26//26 27//27
f 28//28 29//29 30//30
f 31//31 32//32 33//33
f 34//34 35//35 36//36
f 37//37 38//38 39//39
f 40//40 41//41 42//42
f 43//43 44//44 45//45
f 46//46 47//47 48//48
f 49//49 50//50 51//51
f 52//52 53//53 54//54
f 55//55 56//56 57//57
f 58//58 59//59 60//60
f 61//61 62//62 63//63
f 64//64 65//65 66//66
f 67//67 68//68 69//69
f 70//70 71//71 72//72
f 73//73 74//74 75//75
f 76//76 77//77 78//78
f 79//79 80//80 81//81
f 82//82 83//83 84//84
f 85//85 86//86 87//87
f 88//88 89//89 90//90
f 91//91 92//92 93//93
f 94//94 95//95 96//96
f 97//97 98//98 99//99
f 100//100 101//101 102//102
f 103//103 104//104 105//105
f 106//106 107//107 108//108
f 109//109 110//110 111//111
f 112//112 113//113 114//114
f 115//115 116//116 117//117
f 118//118 119//119 120//120
f 121//121 122//122 123//123
f 124//124 125//125 126//126
f 127//127 128//128 129//129
f 130//130 131//131 132//132
f 133//133 134//134 135//135
f 136//136 137//137 138//138
f 139//139 140//140 141//141
f 142//142 143//143 144//144
